<mxfile host="app.diagrams.net" modified="2022-11-10T05:56:48.192Z" agent="5.0 (Windows NT 10.0; Win64; x64) AppleWebKit/537.36 (KHTML, like Gecko) Chrome/107.0.0.0 Safari/537.36" etag="IfvKor_TY71XAVm1jceh" version="20.5.3" type="github">
  <diagram id="fYzu2KRPKEVzYZQTQnyg" name="Authentification">
    <mxGraphModel dx="1085" dy="610" grid="1" gridSize="10" guides="1" tooltips="1" connect="1" arrows="1" fold="1" page="1" pageScale="1" pageWidth="827" pageHeight="1169" background="#DAD2D8" math="0" shadow="0">
      <root>
        <mxCell id="0" />
        <mxCell id="1" parent="0" />
        <mxCell id="vsP-UKOujCoIYMK9DtkU-16" value="alt" style="shape=umlFrame;whiteSpace=wrap;html=1;fillColor=#FAE5C7;strokeColor=#0F8B8D;fontColor=#143642;" vertex="1" parent="1">
          <mxGeometry x="20" y="370" width="700" height="170" as="geometry" />
        </mxCell>
        <mxCell id="gKAlJ7jI2D9lfl8lINUI-3" value="Utilisateur" style="shape=umlLifeline;participant=umlActor;perimeter=lifelinePerimeter;whiteSpace=wrap;html=1;container=1;collapsible=0;recursiveResize=0;verticalAlign=top;spacingTop=36;outlineConnect=0;fillColor=#FAE5C7;strokeColor=#0F8B8D;fontColor=#143642;" parent="1" vertex="1">
          <mxGeometry x="80" y="110" width="20" height="490" as="geometry" />
        </mxCell>
        <mxCell id="vsP-UKOujCoIYMK9DtkU-15" value="" style="html=1;points=[];perimeter=orthogonalPerimeter;fillColor=#FAE5C7;strokeColor=#0F8B8D;fontColor=#143642;" vertex="1" parent="gKAlJ7jI2D9lfl8lINUI-3">
          <mxGeometry x="5" y="70" width="10" height="400" as="geometry" />
        </mxCell>
        <mxCell id="gKAlJ7jI2D9lfl8lINUI-4" value="Système" style="shape=umlLifeline;perimeter=lifelinePerimeter;whiteSpace=wrap;html=1;container=1;collapsible=0;recursiveResize=0;outlineConnect=0;fillColor=#FAE5C7;strokeColor=#0F8B8D;fontColor=#143642;" parent="1" vertex="1">
          <mxGeometry x="270" y="110" width="100" height="490" as="geometry" />
        </mxCell>
        <mxCell id="gKAlJ7jI2D9lfl8lINUI-8" value="" style="html=1;points=[];perimeter=orthogonalPerimeter;fillColor=#FAE5C7;strokeColor=#0F8B8D;fontColor=#143642;" parent="gKAlJ7jI2D9lfl8lINUI-4" vertex="1">
          <mxGeometry x="45" y="70" width="10" height="410" as="geometry" />
        </mxCell>
        <mxCell id="vsP-UKOujCoIYMK9DtkU-26" value="2.1.3.1: Afficher le menu" style="html=1;verticalAlign=bottom;endArrow=open;dashed=1;endSize=8;rounded=0;labelBackgroundColor=#DAD2D8;strokeColor=#A8201A;fontColor=#143642;" edge="1" parent="gKAlJ7jI2D9lfl8lINUI-4" target="vsP-UKOujCoIYMK9DtkU-15">
          <mxGeometry relative="1" as="geometry">
            <mxPoint x="45" y="400" as="sourcePoint" />
            <mxPoint x="-35" y="400" as="targetPoint" />
          </mxGeometry>
        </mxCell>
        <mxCell id="gKAlJ7jI2D9lfl8lINUI-9" value="1: Démarer l&#39;application" style="html=1;verticalAlign=bottom;startArrow=oval;endArrow=block;startSize=8;rounded=0;exitX=1.047;exitY=0.049;exitDx=0;exitDy=0;exitPerimeter=0;labelBackgroundColor=#DAD2D8;strokeColor=#A8201A;fontColor=#143642;" parent="1" source="vsP-UKOujCoIYMK9DtkU-15" target="gKAlJ7jI2D9lfl8lINUI-8" edge="1">
          <mxGeometry relative="1" as="geometry">
            <mxPoint x="140" y="190" as="sourcePoint" />
            <Array as="points">
              <mxPoint x="190" y="200" />
            </Array>
          </mxGeometry>
        </mxCell>
        <mxCell id="vsP-UKOujCoIYMK9DtkU-1" value="1.1 : Afficher le formulaire &lt;br&gt;d&#39;authentification" style="html=1;verticalAlign=bottom;endArrow=open;dashed=1;endSize=8;rounded=0;exitX=-0.096;exitY=0.144;exitDx=0;exitDy=0;exitPerimeter=0;entryX=1.052;entryY=0.149;entryDx=0;entryDy=0;entryPerimeter=0;labelBackgroundColor=#DAD2D8;strokeColor=#A8201A;fontColor=#143642;" edge="1" parent="1" source="gKAlJ7jI2D9lfl8lINUI-8" target="vsP-UKOujCoIYMK9DtkU-15">
          <mxGeometry relative="1" as="geometry">
            <mxPoint x="310" y="240" as="sourcePoint" />
            <mxPoint x="180" y="260" as="targetPoint" />
            <Array as="points">
              <mxPoint x="200" y="240" />
            </Array>
          </mxGeometry>
        </mxCell>
        <mxCell id="vsP-UKOujCoIYMK9DtkU-4" value="2: Taper le nom et le mots de &lt;br&gt;passe d&#39;ultilisateur" style="html=1;verticalAlign=bottom;startArrow=oval;endArrow=block;startSize=8;rounded=0;exitX=1.052;exitY=0.249;exitDx=0;exitDy=0;exitPerimeter=0;labelBackgroundColor=#DAD2D8;strokeColor=#A8201A;fontColor=#143642;" edge="1" parent="1" source="vsP-UKOujCoIYMK9DtkU-15" target="gKAlJ7jI2D9lfl8lINUI-8">
          <mxGeometry relative="1" as="geometry">
            <mxPoint x="100" y="280" as="sourcePoint" />
            <Array as="points">
              <mxPoint x="290" y="280" />
            </Array>
          </mxGeometry>
        </mxCell>
        <mxCell id="vsP-UKOujCoIYMK9DtkU-5" value=":Object" style="shape=umlLifeline;perimeter=lifelinePerimeter;whiteSpace=wrap;html=1;container=1;collapsible=0;recursiveResize=0;outlineConnect=0;fillColor=#FAE5C7;strokeColor=#0F8B8D;fontColor=#143642;" vertex="1" parent="1">
          <mxGeometry x="580" y="110" width="100" height="490" as="geometry" />
        </mxCell>
        <mxCell id="vsP-UKOujCoIYMK9DtkU-8" value="" style="html=1;points=[];perimeter=orthogonalPerimeter;fillColor=#FAE5C7;strokeColor=#0F8B8D;fontColor=#143642;" vertex="1" parent="vsP-UKOujCoIYMK9DtkU-5">
          <mxGeometry x="45" y="190" width="10" height="290" as="geometry" />
        </mxCell>
        <mxCell id="vsP-UKOujCoIYMK9DtkU-13" style="edgeStyle=orthogonalEdgeStyle;rounded=0;orthogonalLoop=1;jettySize=auto;html=1;labelBackgroundColor=#DAD2D8;strokeColor=#A8201A;fontColor=#143642;" edge="1" parent="vsP-UKOujCoIYMK9DtkU-5" target="vsP-UKOujCoIYMK9DtkU-8">
          <mxGeometry relative="1" as="geometry">
            <mxPoint x="56" y="220" as="sourcePoint" />
            <Array as="points">
              <mxPoint x="56" y="220" />
              <mxPoint x="100" y="220" />
              <mxPoint x="100" y="250" />
            </Array>
          </mxGeometry>
        </mxCell>
        <mxCell id="vsP-UKOujCoIYMK9DtkU-14" value="2.1.1 : Recherche" style="edgeLabel;html=1;align=center;verticalAlign=middle;resizable=0;points=[];labelBackgroundColor=#DAD2D8;fontColor=#143642;" vertex="1" connectable="0" parent="vsP-UKOujCoIYMK9DtkU-13">
          <mxGeometry x="0.4311" y="-1" relative="1" as="geometry">
            <mxPoint x="18" y="-19" as="offset" />
          </mxGeometry>
        </mxCell>
        <mxCell id="vsP-UKOujCoIYMK9DtkU-9" value="2.1 : Demande la recherche du nom et mot de passe&lt;br&gt;d&#39;utilisateur" style="html=1;verticalAlign=bottom;startArrow=oval;endArrow=block;startSize=8;rounded=0;labelBackgroundColor=#DAD2D8;strokeColor=#A8201A;fontColor=#143642;" edge="1" target="vsP-UKOujCoIYMK9DtkU-8" parent="1" source="gKAlJ7jI2D9lfl8lINUI-8">
          <mxGeometry relative="1" as="geometry">
            <mxPoint x="480" y="306.9" as="sourcePoint" />
            <Array as="points">
              <mxPoint x="430" y="320" />
            </Array>
          </mxGeometry>
        </mxCell>
        <mxCell id="vsP-UKOujCoIYMK9DtkU-17" value="" style="endArrow=none;dashed=1;html=1;dashPattern=1 3;strokeWidth=2;rounded=0;exitX=0.001;exitY=0.522;exitDx=0;exitDy=0;exitPerimeter=0;entryX=1;entryY=0.522;entryDx=0;entryDy=0;entryPerimeter=0;labelBackgroundColor=#DAD2D8;strokeColor=#A8201A;fontColor=#143642;" edge="1" parent="1" source="vsP-UKOujCoIYMK9DtkU-16" target="vsP-UKOujCoIYMK9DtkU-16">
          <mxGeometry width="50" height="50" relative="1" as="geometry">
            <mxPoint x="310" y="400" as="sourcePoint" />
            <mxPoint x="390" y="370" as="targetPoint" />
          </mxGeometry>
        </mxCell>
        <mxCell id="vsP-UKOujCoIYMK9DtkU-20" value="2.1.2: Non Trouvé" style="html=1;verticalAlign=bottom;endArrow=open;dashed=1;endSize=8;rounded=0;exitX=-0.047;exitY=0.351;exitDx=0;exitDy=0;exitPerimeter=0;entryX=1.063;entryY=0.536;entryDx=0;entryDy=0;entryPerimeter=0;labelBackgroundColor=#DAD2D8;strokeColor=#A8201A;fontColor=#143642;" edge="1" parent="1" source="vsP-UKOujCoIYMK9DtkU-8" target="gKAlJ7jI2D9lfl8lINUI-8">
          <mxGeometry relative="1" as="geometry">
            <mxPoint x="510" y="370" as="sourcePoint" />
            <mxPoint x="330" y="400" as="targetPoint" />
          </mxGeometry>
        </mxCell>
        <mxCell id="vsP-UKOujCoIYMK9DtkU-24" value="2.1.3: Trouvé" style="html=1;verticalAlign=bottom;endArrow=open;dashed=1;endSize=8;rounded=0;exitX=-0.207;exitY=0.61;exitDx=0;exitDy=0;exitPerimeter=0;labelBackgroundColor=#DAD2D8;strokeColor=#A8201A;fontColor=#143642;" edge="1" parent="1" source="vsP-UKOujCoIYMK9DtkU-8" target="gKAlJ7jI2D9lfl8lINUI-8">
          <mxGeometry relative="1" as="geometry">
            <mxPoint x="510" y="370" as="sourcePoint" />
            <mxPoint x="330" y="400" as="targetPoint" />
          </mxGeometry>
        </mxCell>
        <mxCell id="vsP-UKOujCoIYMK9DtkU-25" value="2.1.3: Afficher un message d&#39;erreur" style="html=1;verticalAlign=bottom;endArrow=open;dashed=1;endSize=8;rounded=0;exitX=-0.2;exitY=0.608;exitDx=0;exitDy=0;exitPerimeter=0;entryX=0.978;entryY=0.622;entryDx=0;entryDy=0;entryPerimeter=0;labelBackgroundColor=#DAD2D8;strokeColor=#A8201A;fontColor=#143642;" edge="1" parent="1" source="gKAlJ7jI2D9lfl8lINUI-8" target="vsP-UKOujCoIYMK9DtkU-15">
          <mxGeometry relative="1" as="geometry">
            <mxPoint x="230" y="430" as="sourcePoint" />
            <mxPoint x="150" y="430" as="targetPoint" />
          </mxGeometry>
        </mxCell>
        <mxCell id="vsP-UKOujCoIYMK9DtkU-27" value="Diagramme de séquence cas authentification :" style="rounded=1;whiteSpace=wrap;html=1;fillColor=#FAE5C7;strokeColor=#0F8B8D;fontColor=#143642;" vertex="1" parent="1">
          <mxGeometry x="190" y="20" width="440" height="60" as="geometry" />
        </mxCell>
      </root>
    </mxGraphModel>
  </diagram>
</mxfile>
